<svg width="62" height="60" xmlns="http://www.w3.org/2000/svg" xmlns:xlink="http://www.w3.org/1999/xlink" xml:space="preserve" overflow="hidden"><defs><clipPath id="clip0"><rect x="882" y="180" width="62" height="60"/></clipPath><clipPath id="clip1"><rect x="883" y="180" width="60" height="60"/></clipPath><clipPath id="clip2"><rect x="883" y="180" width="60" height="60"/></clipPath><clipPath id="clip3"><rect x="883" y="180" width="60" height="60"/></clipPath></defs><g clip-path="url(#clip0)" transform="translate(-882 -180)"><g clip-path="url(#clip1)"><g clip-path="url(#clip2)"><g clip-path="url(#clip3)"><path d="M935 240 914.9 240C911.6 240 909 237.4 908.9 234.1L908.9 229.4C908.9 224.7 905.8 220.9 901.9 220.9 898 220.9 894.9 224.7 894.9 229.4 894.9 230.5 894 231.4 892.9 231.4 891.8 231.4 890.9 230.5 890.9 229.4 890.9 222.5 895.8 216.9 901.9 216.9 903.9 216.9 905.7 215.9 906.7 214.2 907.7 212.5 907.7 210.4 906.7 208.7 906.3 208 905.8 207.5 905.2 207 903.3 205.6 900.7 205.6 898.8 207 898.2 207.4 897.7 208 897.3 208.7 896.5 210 896.4 211.7 896.8 213.1 897.1 214.2 896.6 215.3 895.5 215.6 894.4 215.9 893.3 215.4 893 214.3 892.2 211.7 892.5 209 893.8 206.6 894.5 205.5 895.4 204.5 896.4 203.7 899.7 201.3 904.2 201.3 907.6 203.7 908.7 204.5 909.6 205.5 910.2 206.6 912.3 210.2 911.8 214.6 909 217.7 908.6 218.1 908.3 218.5 907.8 218.8 911.1 221.3 913 225.2 912.9 229.3L912.9 234C912.9 235.1 913.8 235.9 914.9 235.9L935 235.9C937.2 235.9 939 234.1 939 231.9L939 188C939 185.8 937.2 184 935 184L891 184C888.8 184 887 185.8 887 188L887 232C887 234.2 888.8 236 891 236L903 236C904.1 236 905 236.9 905 238 905 239.1 904.1 240 903 240L891 240C886.6 240 883 236.4 883 232L883 188C883 183.6 886.6 180 891 180L935 180C939.4 180 943 183.6 943 188L943 232C943 236.4 939.4 240 935 240ZM931 232C930.5 232 930 231.8 929.6 231.4 929.2 231 929 230.6 929 230L929 229C929.2 226.5 927.5 224.3 925 224 922.5 224.3 920.8 226.5 921 229L921 230C921 231.1 920.1 232 919 232 917.9 232 917 231.1 917 230L917 229C916.7 224.3 920.3 220.3 925 220 925.8 220 926.7 219.6 927.2 219 927.5 218.7 927.7 218.3 927.8 217.9 928.1 217.1 928 216.2 927.5 215.5 927.3 215.1 927 214.8 926.7 214.6 925.7 213.8 924.2 213.8 923.2 214.6 922.9 214.8 922.6 215.2 922.4 215.5 922.2 215.9 922.1 216.3 922 216.7 921.9 217.8 920.9 218.6 919.8 218.5 918.7 218.4 917.9 217.4 918 216.3 918.1 215.3 918.4 214.4 918.9 213.5 919.4 212.7 920.1 211.9 920.8 211.3 923.3 209.5 926.6 209.5 929 211.3 929.8 211.9 930.5 212.6 930.9 213.5 931.9 215.2 932.1 217.3 931.5 219.2 931.2 220.1 930.7 221 930 221.7 929.9 221.8 929.8 221.9 929.8 221.9 931.8 223.7 932.9 226.3 932.8 228.9L932.8 229.9C932.8 230.4 932.6 230.9 932.2 231.3 931.8 231.7 931.5 232 931 232ZM919 208C917.9 208 917 207.1 917 206 917 204.9 916.1 204 915 204L913 204C911.9 204 911 203.1 911 202 911 200.9 911.9 200 913 200L915 200C918.3 200 921 202.7 921 206 921 207.1 920.1 208 919 208ZM929 204 925 204C923.9 204 923 203.1 923 202 923 200.9 923.9 200 925 200L929 200C930.1 200 931 199.1 931 198L931 194C931 192.9 930.1 192 929 192L909 192C907.9 192 907 192.9 907 194L907 196C907 197.1 906.1 198 905 198 903.9 198 903 197.1 903 196L903 194C903 190.7 905.7 188 909 188L929 188C932.3 188 935 190.7 935 194L935 198C935 201.3 932.3 204 929 204Z" fill="#00D639" fill-rule="nonzero" fill-opacity="1"/></g></g></g></g></svg>