<svg width="61" height="60" xmlns="http://www.w3.org/2000/svg" xmlns:xlink="http://www.w3.org/1999/xlink" xml:space="preserve" overflow="hidden"><defs><clipPath id="clip0"><rect x="52" y="180" width="61" height="60"/></clipPath><clipPath id="clip1"><rect x="53" y="180" width="60" height="60"/></clipPath><clipPath id="clip2"><rect x="53" y="180" width="60" height="60"/></clipPath><clipPath id="clip3"><rect x="53" y="180" width="60" height="60"/></clipPath></defs><g clip-path="url(#clip0)" transform="translate(-52 -180)"><g clip-path="url(#clip1)"><g clip-path="url(#clip2)"><g clip-path="url(#clip3)"><path d="M105 240 87 240C83.7 240 81 237.3 81 234L81 230C81 225.6 77.4 222 73 222 68.6 222 65 225.6 65 230 65 231.1 64.1 232 63 232 61.9 232 61 231.1 61 230 61 223.4 66.4 218 73 218 75.6 218 77.9 216.3 78.7 213.9 79 213.1 79.1 212.3 79 211.4 78.8 209.7 77.9 208.2 76.6 207.2 74.5 205.7 71.7 205.7 69.5 207.2 67.4 208.7 66.5 211.4 67.3 213.9 67.6 215 67.1 216.1 66 216.4 64.9 216.7 63.8 216.2 63.5 215.1 62.3 211.5 63.3 207.5 66.1 204.8 68.9 202.1 72.9 201.3 76.5 202.6 80.1 203.9 82.6 207.1 83 210.9 83.3 213.7 82.4 216.5 80.5 218.6 80.1 219 79.8 219.4 79.4 219.7 82.8 222 85 225.8 85 230L85 234C85 235.1 85.9 236 87 236L105 236C107.2 236 109 234.2 109 232L109 188C109 185.8 107.2 184 105 184L61 184C58.8 184 57 185.8 57 188L57 232C57 234.2 58.8 236 61 236L77 236C78.1 236 79 236.9 79 238 79 239.1 78.1 240 77 240L61 240C56.6 240 53 236.4 53 232L53 188C53 183.6 56.6 180 61 180L105 180C109.4 180 113 183.6 113 188L113 232C113 236.4 109.4 240 105 240ZM101 232 89 232C87.9 232 87 231.1 87 230 87 228.9 87.9 228 89 228L101 228 96.2 220C96.2 220 96.2 220 96.1 220L87 220C85.9 220 85 219.1 85 218 85 216.9 85.9 216 87 216L93.8 216 87.2 205C87 204.7 86.9 204.3 86.9 204L86.9 190C86.9 188.9 87.8 188 88.9 188L92.9 188C94 188 94.9 188.9 94.9 190 94.9 191.1 94 192 92.9 192L90.9 192 90.9 203.4 104.3 225.9C105.1 227.1 105.1 228.7 104.4 229.9 103.8 231.2 102.4 232 101 232ZM81 202C79.9 202 79 201.1 79 200L79 192 77 192C75.9 192 75 191.1 75 190 75 188.9 75.9 188 77 188L81 188C82.1 188 83 188.9 83 190L83 200C83 201.1 82.1 202 81 202Z" fill="#00D639" fill-rule="nonzero" fill-opacity="1"/></g></g></g></g></svg>