<svg width="60" height="60" xmlns="http://www.w3.org/2000/svg" xmlns:xlink="http://www.w3.org/1999/xlink" xml:space="preserve" overflow="hidden"><defs><clipPath id="clip0"><rect x="468" y="180" width="60" height="60"/></clipPath></defs><g clip-path="url(#clip0)" transform="translate(-468 -180)"><path d="M520 240 502 240C500.9 240 500 239.1 500 238 500 236.9 500.9 236 502 236L520 236C522.2 236 524 234.2 524 232L524 188C524 185.8 522.2 184 520 184L476 184C473.8 184 472 185.8 472 188L472 232C472 234.2 473.8 236 476 236L494 236C495.1 236 496 236.9 496 238 496 239.1 495.1 240 494 240L476 240C471.6 240 468 236.4 468 232L468 188C468 183.6 471.6 180 476 180L520 180C524.4 180 528 183.6 528 188L528 232C528 236.4 524.4 240 520 240ZM498 228C496.9 228 496 227.1 496 226L496 220.9C496 215.3 493 212 488 212 484.1 212 480 214.3 480 220.9L480 226C480 227.1 479.1 228 478 228 476.9 228 476 227.1 476 226L476 220.9C476 212 482 208 488 208 490.7 208 493.1 206.2 493.8 203.6 494.5 201 493.4 198.2 491 196.8 489.1 195.8 486.9 195.8 485 196.8 483.1 197.9 482 199.9 482 202 482 203.1 481.1 204 480 204 478.9 204 478 203.1 478 202 478 198.4 479.9 195.1 483 193.3 486.1 191.5 489.9 191.5 493 193.3 495.8 194.9 497.7 197.9 498 201.1 498.3 204.4 496.9 207.5 494.4 209.6 498.2 212 500.3 216.3 500 220.8L500 226C500 227.1 499.1 228 498 228ZM510 224C508.9 224 508 223.1 508 222 508 212.5 502.6 212 502 212 500.9 212 500 211.1 500 210 500 208.9 500.9 208 502 208 503.1 208.1 504.2 207.8 505 207 505.8 206.2 506.2 205.1 506 204 505.8 201.9 504.1 200.2 502 200 500.9 200 500 199.1 500 198 500 196.9 500.9 196 502 196 506.3 196.2 509.8 199.7 510 204 510.1 206.3 509.2 208.6 507.5 210.1 509.8 212 512 215.5 512 222 512 223.1 511.1 224 510 224ZM518 220C516.9 220 516 219.1 516 218 516.2 215.6 515.1 213.2 513.1 211.8 512.3 211.4 511.8 210.5 512.1 209.6 512.3 208.7 513.1 208.1 514 208.1 515.1 208.1 516 207.2 516 206.1 516 205 515.1 204.1 514 204.1 512.9 204.1 512 203.2 512 202.1 512 201 512.9 200.1 514 200.1 516.6 200.1 518.8 201.7 519.7 204.1 520.6 206.5 519.8 209.2 517.8 210.8 519.4 212.9 520.2 215.5 520.1 218.1 520 219.1 519.1 220 518 220Z" fill="#00D639" fill-rule="nonzero" fill-opacity="1"/></g></svg>